<svg width="195" height="45" viewBox="0 0 195 45" fill="none" xmlns="http://www.w3.org/2000/svg">
<path d="M16.9196 13.7498C11.7673 8.73683 15.3164 0 22.5049 0C29.6935 0 33.2425 8.73684 28.0903 13.7498L22.5049 19.1842L16.9196 13.7498Z" fill="#CBEA7B"/>
<path d="M16.9518 31.2502C11.7996 36.2632 15.3486 45 22.5371 45C29.7257 45 33.2747 36.2632 28.1225 31.2502L22.5371 25.8158L16.9518 31.2502Z" fill="#CBEA7B"/>
<path d="M13.7708 28.1012C8.75783 33.2534 0.0209961 29.7044 0.0209961 22.5158C0.0209961 15.3273 8.75783 11.7782 13.7708 16.9305L19.2052 22.5158L13.7708 28.1012Z" fill="#CBEA7B"/>
<path d="M31.2712 28.0687C36.2842 33.2209 45.021 29.6719 45.021 22.4834C45.021 15.2948 36.2842 11.7458 31.2712 16.898L25.8368 22.4834L31.2712 28.0687Z" fill="#CBEA7B"/>
<path d="M65.0197 25.9426V14.6251H68.4397V30.3751H63.5122L56.6047 19.0801H56.2222V30.3751H52.8022V14.6251H57.4147V14.6476H57.7297L64.6147 25.9426H65.0197Z" fill="white"/>
<path d="M80.8822 17.7526H84.3022V30.3751H80.8822V28.5301H80.7247C79.9147 29.6551 78.7672 30.3751 76.4947 30.3751C71.1622 30.3751 71.0272 25.9201 71.0272 24.0751V17.7526H74.4247V24.0751C74.4247 25.0651 74.1997 27.4501 77.4847 27.4501C80.4322 27.4501 80.8822 25.5601 80.8822 23.8501V17.7526Z" fill="white"/>
<path d="M91.5472 20.6776V25.1551V25.4251C91.5472 27.2476 92.3572 27.0001 95.6422 26.8201V30.1501C95.6422 30.1501 94.9672 30.3751 91.5472 30.3751C88.1047 30.3751 88.1047 27.5626 88.1047 25.7401V20.6776H86.4397V17.7976H88.1047V14.1526H91.5472V17.7976H95.6422V20.6776H91.5472Z" fill="white"/>
<path d="M105.275 17.7526C106.175 17.7526 106.918 17.9551 107.503 18.0901L106.963 21.3076C106.648 21.2176 105.77 21.0376 104.69 21.0376C102.148 21.0376 101.405 23.0176 101.405 24.7276V30.3751H97.9851V17.7526H101.405V19.6201H101.608C102.328 18.4051 103.093 17.7526 105.275 17.7526Z" fill="white"/>
<path d="M112.73 30.3751H109.333V17.8426H112.73V30.3751ZM112.73 16.9426H109.333V13.8826H112.73V16.9426Z" fill="white"/>
<path d="M120.185 20.6776V25.1551V25.4251C120.185 27.2476 120.995 27.0001 124.28 26.8201V30.1501C124.28 30.1501 123.605 30.3751 120.185 30.3751C116.742 30.3751 116.742 27.5626 116.742 25.7401V20.6776H115.077V17.7976H116.742V14.1526H120.185V17.7976H124.28V20.6776H120.185Z" fill="white"/>
<path d="M129.954 30.3751H126.557V17.8426H129.954V30.3751ZM129.954 16.9426H126.557V13.8826H129.954V16.9426Z" fill="white"/>
<path d="M139.321 17.5276C143.169 17.5276 146.364 19.5751 146.364 23.9626C146.364 28.3951 143.169 30.3751 139.321 30.3751C135.496 30.3751 132.301 28.3276 132.301 23.9626C132.301 19.6201 135.496 17.5276 139.321 17.5276ZM139.321 27.2701C141.481 27.2701 143.011 26.2351 143.011 23.9626C143.011 21.6226 141.481 20.6551 139.321 20.6551C137.184 20.6551 135.654 21.5776 135.654 23.9626C135.654 26.3251 137.184 27.2701 139.321 27.2701Z" fill="white"/>
<path d="M156.466 17.7526C161.798 17.7526 161.933 22.2301 161.933 24.0751V30.3751H158.536V24.0751C158.536 23.0851 158.738 20.7001 155.476 20.7001C152.506 20.7001 152.078 22.5901 152.078 24.3001V30.3751H148.658V17.7526H152.078V19.6201H152.236C153.046 18.4951 154.193 17.7526 156.466 17.7526Z" fill="white"/>
<path d="M167.908 30.3751H164.51V17.8426H167.908V30.3751ZM167.908 16.9426H164.51V13.8826H167.908V16.9426Z" fill="white"/>
<path d="M176.74 22.7251C179.598 23.1526 182.838 23.6476 182.838 26.6401C182.838 29.7676 180.588 30.3751 176.718 30.3751C173.86 30.3751 171.903 29.8576 170.89 28.8451C170.013 27.9676 170.013 26.9101 170.035 26.2576V26.0101H173.545V26.1226C173.545 27.2026 174.355 27.6976 176.628 27.6976C178 27.6976 179.305 27.5176 179.305 26.6851C179.305 25.7401 178.09 25.5601 176.718 25.4026C176.538 25.3801 176.358 25.3576 176.178 25.3351C172.555 24.8626 170.305 24.0526 170.305 21.5326C170.305 19.7776 171.318 17.6851 176.178 17.6851C181.398 17.6851 182.5 20.0026 182.5 21.9376V22.0501H179.013V21.9376C179.013 20.9476 178.158 20.4076 176.178 20.4076C174.265 20.4076 173.86 21.1051 173.86 21.4876C173.86 22.0501 174.243 22.3651 176.448 22.7026L176.74 22.7251Z" fill="white"/>
<path d="M189.522 20.6776V25.1551V25.4251C189.522 27.2476 190.332 27.0001 193.617 26.8201V30.1501C193.617 30.1501 192.942 30.3751 189.522 30.3751C186.08 30.3751 186.08 27.5626 186.08 25.7401V20.6776H184.415V17.7976H186.08V14.1526H189.522V17.7976H193.617V20.6776H189.522Z" fill="white"/>
</svg>
